<svg width="65" height="64" viewBox="0 0 65 64" fill="none" xmlns="http://www.w3.org/2000/svg">
<path d="M53.7922 34.6079C51.7416 34.6186 49.9656 35.1106 48.4776 35.8452C47.9336 34.7586 47.3816 33.8026 47.2896 33.0919C47.1816 32.2626 47.0562 31.7666 47.1869 30.7786C47.3176 29.7906 47.8896 28.3906 47.8816 28.2852C47.8736 28.1799 47.7536 27.6772 46.5709 27.6679C45.3882 27.6599 44.3762 27.8959 44.2576 28.2079C44.1389 28.5199 43.9109 29.2226 43.7696 29.9559C43.5629 31.0279 41.4082 34.8532 40.1856 36.8532C39.7856 36.0719 39.4456 35.3839 39.3749 34.8399C39.2669 34.0106 39.1416 33.5146 39.2722 32.5266C39.4029 31.5386 39.9749 30.1386 39.9669 30.0332C39.9589 29.9279 39.8389 29.4252 38.6562 29.4159C37.4736 29.4079 36.4616 29.6439 36.3429 29.9559C36.2242 30.2679 36.0962 30.9972 35.8549 31.7039C35.6122 32.4092 32.7496 38.7892 31.9989 40.4439C31.6162 41.2866 31.2842 41.9639 31.0496 42.4252L31.0482 42.4226C31.0482 42.4226 31.0336 42.4532 31.0096 42.5052C30.8082 42.8986 30.6896 43.1159 30.6896 43.1159C30.6896 43.1159 30.6909 43.1186 30.6936 43.1239C30.5336 43.4132 30.3629 43.6812 30.2789 43.6812C30.2202 43.6812 30.1016 42.9119 30.3042 41.8559C30.7309 39.6426 31.7536 36.1919 31.7442 36.0719C31.7389 36.0106 31.9349 35.4092 31.0762 35.0946C30.2416 34.7892 29.9442 35.2986 29.8682 35.2999C29.7949 35.3012 29.7402 35.4799 29.7402 35.4799C29.7402 35.4799 30.6696 31.5986 27.9669 31.5986C26.2762 31.5986 23.9349 33.4479 22.7816 35.1239C22.0536 35.5212 20.4949 36.3719 18.8429 37.2799C18.2082 37.6292 17.5602 37.9852 16.9456 38.3239C16.9042 38.2772 16.8616 38.2319 16.8189 38.1852C13.5402 34.6879 7.48158 32.2146 7.73758 27.5119C7.83091 25.8026 8.42558 21.3012 19.3816 15.8426C28.3562 11.3706 35.5416 12.6012 36.7829 15.3279C38.5562 19.2252 32.9429 26.4666 23.6229 27.5119C20.0722 27.9106 18.2016 26.5332 17.7362 26.0212C17.2469 25.4812 17.1736 25.4572 16.9909 25.5586C16.6936 25.7239 16.8816 26.1999 16.9909 26.4839C17.2696 27.2079 18.4109 28.4919 20.3576 29.1319C22.0709 29.6946 26.2402 30.0026 31.2816 28.0519C36.9296 25.8679 41.3389 19.7906 40.0429 14.7119C38.7256 9.54658 30.1602 7.84791 22.0536 10.7279C17.2229 12.4426 12.0002 15.1332 8.24424 18.6452C3.77891 22.8212 3.06691 26.4572 3.36024 27.9759C4.40291 33.3732 11.8416 36.8879 14.8202 39.4919C14.6736 39.5732 14.5349 39.6492 14.4096 39.7186C12.9162 40.4572 7.24558 43.4252 5.82691 46.5599C4.21758 50.1159 6.08291 52.6679 7.31758 53.0119C11.1429 54.0759 15.0682 52.1612 17.1789 49.0146C19.2882 45.8692 19.0309 41.7719 18.0629 39.9026C18.0509 39.8799 18.0376 39.8572 18.0256 39.8332C18.4109 39.6052 18.8042 39.3732 19.1936 39.1439C19.9536 38.6972 20.7002 38.2812 21.3469 37.9292C20.9842 38.9212 20.7189 40.1119 20.5816 41.8306C20.4189 43.8492 21.2469 46.4586 22.3296 47.4852C22.8069 47.9372 23.3802 47.9479 23.7429 47.9479C25.0029 47.9479 25.5776 46.8999 26.2109 45.6599C26.9869 44.1399 27.6762 42.3692 27.6762 42.3692C27.6762 42.3692 26.8122 47.1506 29.1669 47.1506C30.0256 47.1506 30.8882 46.0372 31.2736 45.4706C31.2749 45.4772 31.2749 45.4799 31.2749 45.4799C31.2749 45.4799 31.2976 45.4426 31.3416 45.3692C31.4309 45.2332 31.4816 45.1466 31.4816 45.1466C31.4816 45.1466 31.4829 45.1372 31.4856 45.1212C31.8309 44.5226 32.5962 43.1572 33.7429 40.9052C35.2256 37.9959 36.6469 34.3506 36.6469 34.3506C36.6469 34.3506 36.7789 35.2412 37.2122 36.7159C37.4669 37.5826 38.0082 38.5412 38.4362 39.4612C38.0922 39.9386 37.8816 40.2119 37.8816 40.2119C37.8816 40.2119 37.8829 40.2172 37.8869 40.2266C37.6122 40.5919 37.3042 40.9852 36.9816 41.3692C35.8109 42.7626 34.4176 44.3546 34.2309 44.8132C34.0109 45.3546 34.0629 45.7519 34.4882 46.0732C34.7989 46.3066 35.3509 46.3439 35.9282 46.3052C36.9802 46.2346 37.7189 45.9732 38.0842 45.8146C38.6536 45.6132 39.3162 45.2972 39.9376 44.8399C41.0856 43.9959 41.7776 42.7892 41.7109 41.1892C41.6736 40.3079 41.3936 39.4346 41.0376 38.6106C41.1416 38.4612 41.2456 38.3092 41.3509 38.1572C43.1602 35.5119 44.5642 32.6052 44.5642 32.6052C44.5642 32.6052 44.6962 33.4959 45.1296 34.9706C45.3482 35.7159 45.7816 36.5306 46.1709 37.3279C44.4696 38.7106 43.4149 40.3172 43.0482 41.3706C42.3709 43.3199 42.9016 44.2026 43.8962 44.4039C44.3469 44.4946 44.9842 44.2879 45.4629 44.0852C46.0589 43.8879 46.7749 43.5586 47.4442 43.0666C48.5922 42.2226 49.6962 41.0412 49.6296 39.4426C49.5989 38.7146 49.4016 37.9919 49.1336 37.2986C50.5762 36.6972 52.4429 36.3639 54.8216 36.6412C59.9242 37.2372 60.9242 40.4226 60.7336 41.7559C60.5416 43.0892 59.4722 43.8226 59.1136 44.0439C58.7562 44.2652 58.6469 44.3426 58.6762 44.5066C58.7202 44.7452 58.8856 44.7372 59.1909 44.6852C59.6109 44.6146 61.8696 43.6012 61.9669 41.1399C62.0882 38.0119 59.0949 34.5799 53.7922 34.6079ZM14.4629 47.8666C12.7722 49.7106 10.4122 50.4066 9.39891 49.8199C8.30558 49.1866 8.73891 46.4719 10.8122 44.5146C12.0762 43.3226 13.7082 42.2239 14.7909 41.5479C15.0376 41.3999 15.3989 41.1826 15.8389 40.9186C15.9122 40.8772 15.9536 40.8546 15.9536 40.8546L15.9522 40.8519C16.0376 40.8012 16.1242 40.7492 16.2136 40.6946C16.9696 43.4799 16.2376 45.9319 14.4629 47.8666ZM26.7762 39.4972C26.1882 40.9319 24.9562 44.6039 24.2056 44.4066C23.5616 44.2372 23.1696 41.4466 24.0776 38.6999C24.5336 37.3172 25.5096 35.6652 26.0829 35.0239C27.0056 33.9919 28.0216 33.6546 28.2682 34.0732C28.5816 34.6066 27.1456 38.5972 26.7762 39.4972ZM36.9482 44.3506C36.6989 44.4812 36.4696 44.5626 36.3642 44.4999C36.2856 44.4532 36.4669 44.2812 36.4669 44.2812C36.4669 44.2812 37.7389 42.9119 38.2402 42.2892C38.5322 41.9266 38.8696 41.4959 39.2376 41.0159C39.2402 41.0639 39.2416 41.1119 39.2416 41.1586C39.2389 42.7986 37.6549 43.9052 36.9482 44.3506ZM44.7842 42.5639C44.5976 42.4319 44.6296 42.0039 45.2416 40.6692C45.4816 40.1452 46.0309 39.2639 46.9829 38.4212C47.0936 38.7679 47.1602 39.0999 47.1589 39.4092C47.1469 41.4732 45.6749 42.2439 44.7842 42.5639Z" fill="#F06292"/>
</svg>
