<svg width="65" height="64" viewBox="0 0 65 64" fill="none" xmlns="http://www.w3.org/2000/svg">
<g clip-path="url(#clip0_508_1191)">
<path d="M61.5918 0H3.5918C1.93494 0 0.591797 1.34315 0.591797 3V61C0.591797 62.6569 1.93494 64 3.5918 64H61.5918C63.2486 64 64.5918 62.6569 64.5918 61V3C64.5918 1.34315 63.2486 0 61.5918 0Z" fill="#3178C6"/>
<path fill-rule="evenodd" clip-rule="evenodd" d="M37.7229 49.734V56.747C38.8591 57.331 40.2028 57.7695 41.7541 58.0615C43.3055 58.354 44.9405 58.5 46.6594 58.5C48.3345 58.5 49.9259 58.3395 51.4333 58.018C52.9413 57.6965 54.2628 57.167 55.3993 56.429C56.5353 55.691 57.4348 54.727 58.0978 53.536C58.7603 52.3455 59.0918 50.8735 59.0918 49.1203C59.0918 47.8493 58.9023 46.7353 58.5238 45.7783C58.1448 44.8214 57.5988 43.9704 56.8848 43.2252C56.1713 42.4801 55.3153 41.8117 54.3178 41.22C53.3198 40.6283 52.1948 40.0694 50.9418 39.5435C50.0242 39.1636 49.2012 38.7947 48.4729 38.4368C47.7445 38.0788 47.1255 37.7136 46.6157 37.341C46.1058 36.9684 45.7125 36.574 45.4358 36.1576C45.159 35.7413 45.0206 35.27 45.0206 34.7441C45.0206 34.2619 45.1444 33.8273 45.3921 33.4402C45.6397 33.053 45.9893 32.7206 46.4409 32.443C46.8924 32.1655 47.4459 31.95 48.1014 31.7966C48.7569 31.6431 49.4852 31.5664 50.2864 31.5664C50.8693 31.5664 51.4843 31.6103 52.1328 31.6979C52.7808 31.7856 53.4328 31.9207 54.0883 32.1034C54.7438 32.286 55.3808 32.5161 56.0003 32.7937C56.6193 33.0713 57.1908 33.3927 57.7153 33.7579V27.2054C56.6518 26.7963 55.4903 26.4931 54.2303 26.2959C52.9703 26.0986 51.5248 26 49.8931 26C48.2325 26 46.6594 26.1789 45.1736 26.5369C43.6878 26.8948 42.3805 27.4537 41.2516 28.2134C40.1227 28.9731 39.2305 29.941 38.575 31.1171C37.9195 32.2932 37.5918 33.6995 37.5918 35.3358C37.5918 37.4251 38.1926 39.2074 39.3944 40.683C40.5961 42.1587 42.4205 43.4078 44.8677 44.4305C45.8291 44.825 46.7249 45.2122 47.5552 45.592C48.3855 45.9719 49.1029 46.3664 49.7074 46.7755C50.3119 47.1846 50.7888 47.6302 51.1383 48.1123C51.4883 48.5944 51.6628 49.1423 51.6628 49.7559C51.6628 50.209 51.5538 50.629 51.3353 51.016C51.1168 51.403 50.7853 51.739 50.341 52.024C49.8967 52.309 49.3432 52.532 48.6804 52.6925C48.0177 52.853 47.242 52.9335 46.3535 52.9335C44.8385 52.9335 43.3382 52.667 41.8524 52.1335C40.3667 51.6005 38.9902 50.8005 37.7229 49.734ZM25.9431 32.2772H35.0918V26.5H9.5918V32.2772H18.6957V58H25.9431V32.2772Z" fill="white"/>
</g>
<defs>
<clipPath id="clip0_508_1191">
<rect width="64" height="64" fill="white" transform="translate(0.591797)"/>
</clipPath>
</defs>
</svg>
