<svg width="107" height="112" viewBox="0 0 107 112" fill="none" xmlns="http://www.w3.org/2000/svg">
<path d="M88.2141 108.396C83.0946 108.396 78.3031 105.876 75.4021 101.658L32.2846 53.5777M88.2141 108.396C92.701 108.396 96.744 106.495 99.5821 103.456C102.176 100.677 103.763 96.9473 103.763 92.8465V17.8845C103.763 10.0333 97.3988 3.66858 89.5475 3.66858C81.6963 3.66858 75.3316 10.0333 75.3316 17.8845L74.7968 58.4868M88.2141 108.396C99.9668 96.6432 84.1662 70.2262 74.7968 58.4868M74.7968 58.4868L31.6792 10.4068C28.7782 6.18856 23.9868 3.66859 18.8673 3.66859M18.8673 3.66859C14.3804 3.66859 10.3373 5.56903 7.49921 8.60889C4.90531 11.3872 3.31787 15.1172 3.31787 19.218V94.18C3.31787 102.031 9.68255 108.396 17.5338 108.396C25.385 108.396 31.7497 102.031 31.7497 94.18L32.2846 53.5777M18.8673 3.66859C7.11456 15.4213 22.9152 41.8383 32.2846 53.5777" stroke="white" stroke-width="6"/>
</svg>
