<svg width="187" height="187" viewBox="0 0 187 187" fill="none" xmlns="http://www.w3.org/2000/svg">
<mask id="mask0_201_43" style="mask-type:luminance" maskUnits="userSpaceOnUse" x="14" y="4" width="159" height="178">
<path d="M14.0747 4.7832H172.462V181.733H14.0747V4.7832Z" fill="white"/>
</mask>
<g mask="url(#mask0_201_43)">
<path d="M172.439 4.7832H14.0986L28.0696 163.107L93.2686 181.733L158.468 163.107L172.439 4.7832Z" fill="#0277BD"/>
</g>
<path d="M93.2705 18.7559V167.301L145.429 152.399L157.072 18.7559H93.2705Z" fill="#039BE5"/>
<path d="M135.65 42.0381H93.2705V60.6642H116.09L114.693 79.2904H93.2705V97.917H113.762L112.365 118.872L93.2705 125.391V144.949L130.061 132.841L133.321 79.2904L135.65 42.0381Z" fill="white"/>
<path d="M93.2707 42.0381V60.6642H51.8228L50.4255 42.0381H93.2707ZM71.8481 79.2904L72.7794 97.917H93.2707V79.2904H71.8481ZM73.7108 107.23H55.0827L56.4799 132.841L93.2707 144.949V125.391L74.1767 118.872L73.7108 107.23Z" fill="#EEEEEE"/>
</svg>
