<svg width="103" height="104" viewBox="0 0 103 104" fill="none" xmlns="http://www.w3.org/2000/svg">
<path d="M34.154 103.123C43.5746 103.123 51.2203 95.4769 51.2203 86.0562V68.9897H34.154C24.7334 68.9897 17.0878 76.6355 17.0878 86.0562C17.0878 95.4769 24.7334 103.123 34.154 103.123Z" fill="#0ACF83"/>
<path d="M17.0878 51.9196C17.0878 42.4989 24.7334 34.8531 34.154 34.8531H51.2203V68.986H34.154C24.7334 68.986 17.0878 61.3402 17.0878 51.9196Z" fill="#A259FF"/>
<path d="M17.0878 17.7883C17.0878 8.36758 24.7334 0.721802 34.154 0.721802H51.2203V34.8547H34.154C24.7334 34.8547 17.0878 27.209 17.0878 17.7883Z" fill="#F24E1E"/>
<path d="M51.2195 0.721802H68.2858C77.7064 0.721802 85.3522 8.36758 85.3522 17.7883C85.3522 27.209 77.7064 34.8547 68.2858 34.8547H51.2195V0.721802Z" fill="#FF7262"/>
<path d="M85.3522 51.9196C85.3522 61.3402 77.7064 68.986 68.2858 68.986C58.8652 68.986 51.2195 61.3402 51.2195 51.9196C51.2195 42.4989 58.8652 34.8531 68.2858 34.8531C77.7064 34.8531 85.3522 42.4989 85.3522 51.9196Z" fill="#1ABCFE"/>
</svg>
