<svg width="188" height="188" viewBox="0 0 188 188" fill="none" xmlns="http://www.w3.org/2000/svg">
<mask id="mask0_201_432" style="mask-type:luminance" maskUnits="userSpaceOnUse" x="5" y="5" width="178" height="178">
<path d="M5.27637 5.28027H182.6V182.603H5.27637V5.28027Z" fill="white"/>
</mask>
<g mask="url(#mask0_201_432)">
<path d="M179.254 86.0467L101.836 8.62861C101.704 8.49647 101.569 8.36724 101.43 8.24189C101.292 8.11655 101.15 7.99412 101.006 7.87558C100.861 7.75704 100.714 7.64238 100.564 7.53064C100.414 7.41939 100.261 7.31202 100.106 7.20805C99.9503 7.10408 99.7924 7.004 99.6321 6.9083C99.4722 6.8121 99.3095 6.7198 99.1448 6.63186C98.9801 6.54344 98.813 6.45939 98.6439 6.37972C98.4753 6.29955 98.3043 6.22425 98.1318 6.15235C97.9589 6.08093 97.785 6.01389 97.6091 5.95073C97.4327 5.88757 97.2554 5.82927 97.0766 5.77486C96.8978 5.72045 96.7181 5.67089 96.5364 5.62523C96.3552 5.58004 96.173 5.53923 95.9898 5.50231C95.8067 5.46587 95.6225 5.4343 95.4374 5.4066C95.2528 5.3794 95.0672 5.35656 94.8812 5.3381C94.6951 5.31964 94.509 5.30604 94.3225 5.29681C94.1359 5.28758 93.9489 5.2832 93.7618 5.2832C93.5753 5.2832 93.3882 5.28758 93.2017 5.29681C93.0151 5.30604 92.829 5.31964 92.643 5.3381C92.4569 5.35656 92.2713 5.3794 92.0867 5.4066C91.9016 5.4343 91.7175 5.46587 91.5343 5.50231C91.3511 5.53923 91.169 5.58004 90.9877 5.62523C90.806 5.67089 90.6263 5.72045 90.4475 5.77486C90.2687 5.82927 90.0914 5.88757 89.915 5.95073C89.7392 6.01389 89.5648 6.08093 89.3923 6.15235C89.2198 6.22425 89.0488 6.29955 88.8802 6.37972C88.7112 6.45939 88.544 6.54344 88.3793 6.63186C88.2146 6.7198 88.0519 6.8121 87.892 6.9083C87.7317 7.004 87.5738 7.10408 87.4184 7.20805C87.2629 7.31202 87.1104 7.41939 86.9602 7.53064C86.8101 7.64238 86.6629 7.75704 86.5186 7.87558C86.3738 7.99412 86.2325 8.11655 86.094 8.24189C85.9555 8.36724 85.8205 8.49647 85.6883 8.62861L69.6186 24.6983L90.0107 45.0905C94.7539 43.4279 100.184 44.5643 103.964 48.3436C104.187 48.567 104.402 48.7988 104.61 49.0378C104.817 49.2763 105.016 49.5227 105.206 49.7753C105.396 50.0284 105.577 50.2873 105.749 50.5531C105.921 50.8184 106.084 51.0894 106.237 51.3664C106.39 51.6433 106.533 51.9251 106.666 52.2122C106.8 52.4988 106.923 52.7903 107.036 53.0857C107.149 53.3811 107.251 53.6804 107.344 53.983C107.436 54.2857 107.517 54.5908 107.588 54.8993C107.658 55.2078 107.719 55.5183 107.767 55.8306C107.816 56.143 107.855 56.4574 107.881 56.7722C107.909 57.0875 107.925 57.4033 107.93 57.7195C107.935 58.0358 107.929 58.3521 107.912 58.6679C107.895 58.9837 107.866 59.299 107.827 59.6128C107.788 59.9266 107.738 60.2385 107.677 60.549C107.616 60.8594 107.545 61.1675 107.462 61.473C107.38 61.7786 107.287 62.0808 107.183 62.3796L126.838 82.0347C131.593 80.3946 137.079 81.4527 140.874 85.2596C141.032 85.417 141.185 85.5779 141.335 85.743C141.484 85.9077 141.629 86.0758 141.771 86.2478C141.912 86.4198 142.049 86.5952 142.181 86.774C142.314 86.9528 142.442 87.1344 142.566 87.3195C142.69 87.5042 142.809 87.6922 142.923 87.8831C143.037 88.074 143.147 88.2674 143.252 88.4637C143.357 88.6599 143.457 88.8582 143.552 89.0593C143.648 89.2604 143.737 89.464 143.823 89.6695C143.908 89.875 143.988 90.0825 144.063 90.2918C144.138 90.5012 144.208 90.7126 144.272 90.9254C144.337 91.1381 144.397 91.3529 144.451 91.5686C144.505 91.7843 144.554 92.0015 144.597 92.2196C144.641 92.4377 144.678 92.6568 144.711 92.8769C144.744 93.097 144.771 93.3181 144.793 93.5391C144.815 93.7606 144.831 93.9827 144.842 94.2047C144.853 94.4267 144.859 94.6492 144.859 94.8717C144.859 95.0942 144.853 95.3167 144.842 95.5388C144.832 95.7613 144.815 95.9828 144.793 96.2044C144.771 96.4259 144.744 96.6465 144.712 96.8665C144.679 97.0866 144.641 97.3057 144.597 97.5239C144.554 97.7425 144.506 97.9592 144.451 98.1749C144.397 98.3911 144.338 98.6053 144.273 98.8181C144.209 99.0309 144.139 99.2422 144.064 99.4516C143.989 99.6615 143.909 99.869 143.824 100.074C143.739 100.28 143.649 100.483 143.553 100.684C143.459 100.885 143.358 101.084 143.254 101.28C143.149 101.477 143.039 101.67 142.925 101.861C142.81 102.052 142.691 102.24 142.568 102.425C142.444 102.61 142.316 102.792 142.183 102.97C142.051 103.149 141.914 103.324 141.773 103.496C141.631 103.668 141.486 103.837 141.336 104.001C141.187 104.166 141.034 104.327 140.876 104.485C140.719 104.642 140.558 104.795 140.393 104.945C140.228 105.094 140.06 105.239 139.888 105.38C139.716 105.522 139.54 105.659 139.362 105.791C139.183 105.923 139.001 106.052 138.816 106.175C138.631 106.298 138.443 106.417 138.252 106.532C138.062 106.646 137.868 106.756 137.671 106.86C137.476 106.965 137.277 107.066 137.075 107.16C136.874 107.255 136.671 107.346 136.466 107.431C136.26 107.516 136.052 107.596 135.843 107.671C135.633 107.746 135.422 107.815 135.209 107.88C134.996 107.944 134.782 108.004 134.566 108.058C134.35 108.112 134.133 108.16 133.915 108.204C133.697 108.247 133.477 108.285 133.257 108.317C133.037 108.35 132.817 108.377 132.595 108.399C132.373 108.42 132.152 108.437 131.929 108.448C131.707 108.458 131.485 108.464 131.262 108.464C131.04 108.464 130.818 108.458 130.595 108.447C130.373 108.436 130.151 108.42 129.93 108.398C129.709 108.376 129.488 108.349 129.268 108.316C129.048 108.283 128.829 108.245 128.61 108.201C128.392 108.158 128.175 108.109 127.959 108.055C127.744 108.001 127.529 107.941 127.316 107.877C127.104 107.812 126.892 107.742 126.683 107.667C126.474 107.592 126.266 107.512 126.061 107.426C125.855 107.341 125.652 107.251 125.45 107.156C125.249 107.061 125.051 106.961 124.855 106.856C124.659 106.751 124.465 106.641 124.274 106.526C124.084 106.412 123.896 106.293 123.711 106.169C123.526 106.045 123.344 105.917 123.166 105.784C122.987 105.652 122.811 105.515 122.64 105.374C122.468 105.232 122.299 105.087 122.135 104.938C121.97 104.788 121.809 104.634 121.652 104.477C117.662 100.487 116.675 94.6138 118.693 89.6982L100.362 71.3674V119.605C101.701 120.268 102.902 121.125 103.964 122.176C104.121 122.334 104.274 122.494 104.424 122.659C104.573 122.824 104.718 122.992 104.859 123.164C105 123.336 105.137 123.511 105.27 123.69C105.402 123.869 105.53 124.051 105.653 124.236C105.777 124.42 105.896 124.608 106.01 124.799C106.125 124.99 106.234 125.183 106.339 125.379C106.444 125.576 106.544 125.774 106.639 125.975C106.734 126.176 106.824 126.379 106.909 126.585C106.994 126.79 107.074 126.998 107.149 127.207C107.224 127.416 107.294 127.628 107.359 127.84C107.423 128.053 107.483 128.268 107.536 128.483C107.59 128.699 107.639 128.916 107.683 129.134C107.726 129.352 107.764 129.571 107.796 129.791C107.829 130.011 107.857 130.232 107.879 130.453C107.9 130.674 107.916 130.896 107.928 131.118C107.938 131.34 107.944 131.562 107.944 131.785C107.944 132.007 107.938 132.229 107.928 132.451C107.916 132.674 107.9 132.896 107.879 133.117C107.857 133.338 107.829 133.559 107.796 133.779C107.764 133.999 107.726 134.218 107.683 134.436C107.639 134.654 107.59 134.871 107.536 135.087C107.483 135.302 107.423 135.517 107.359 135.729C107.294 135.942 107.224 136.153 107.149 136.363C107.074 136.572 106.994 136.78 106.909 136.985C106.824 137.191 106.734 137.394 106.639 137.595C106.544 137.796 106.444 137.994 106.339 138.191C106.234 138.387 106.125 138.58 106.01 138.771C105.896 138.962 105.777 139.15 105.653 139.334C105.53 139.519 105.402 139.701 105.27 139.88C105.137 140.059 105 140.233 104.859 140.405C104.718 140.577 104.573 140.746 104.424 140.911C104.274 141.075 104.121 141.236 103.964 141.394C103.806 141.551 103.645 141.704 103.481 141.854C103.316 142.003 103.148 142.148 102.976 142.289C102.804 142.43 102.628 142.567 102.45 142.7C102.271 142.832 102.089 142.96 101.904 143.083C101.72 143.207 101.532 143.326 101.341 143.44C101.15 143.555 100.957 143.664 100.761 143.769C100.564 143.874 100.366 143.974 100.165 144.069C99.9639 144.164 99.7608 144.254 99.5553 144.339C99.3498 144.424 99.1424 144.504 98.933 144.579C98.7236 144.654 98.5122 144.724 98.2994 144.789C98.0867 144.853 97.8724 144.912 97.6567 144.966C97.441 145.02 97.2243 145.069 97.0062 145.113C96.788 145.156 96.5689 145.194 96.3488 145.227C96.1288 145.259 95.9082 145.287 95.6871 145.308C95.4656 145.33 95.2441 145.346 95.0216 145.357C94.7995 145.368 94.5775 145.374 94.355 145.374C94.1325 145.374 93.9105 145.368 93.688 145.357C93.466 145.346 93.2444 145.33 93.0229 145.308C92.8018 145.287 92.5813 145.259 92.3612 145.227C92.1411 145.194 91.922 145.156 91.7038 145.113C91.4857 145.069 91.269 145.02 91.0533 144.966C90.8376 144.912 90.6234 144.853 90.4106 144.789C90.1978 144.724 89.9865 144.654 89.7771 144.579C89.5677 144.504 89.3602 144.424 89.1547 144.339C88.9492 144.254 88.7461 144.164 88.545 144.069C88.3439 143.974 88.1456 143.874 87.9494 143.769C87.7531 143.664 87.5597 143.555 87.3688 143.44C87.1784 143.326 86.9903 143.207 86.8053 143.083C86.6206 142.96 86.4389 142.832 86.2602 142.7C86.0814 142.567 85.9065 142.43 85.7345 142.289C85.5625 142.148 85.3939 142.003 85.2292 141.854C85.0645 141.704 84.9037 141.551 84.7463 141.394C84.5889 141.237 84.4354 141.075 84.2858 140.911C84.1361 140.746 83.9909 140.578 83.8495 140.406C83.7086 140.234 83.5716 140.059 83.4389 139.88C83.3063 139.702 83.1781 139.52 83.0542 139.335C82.9308 139.151 82.8113 138.963 82.6971 138.772C82.5824 138.581 82.4726 138.388 82.3677 138.192C82.2628 137.996 82.1627 137.797 82.0675 137.596C81.9722 137.395 81.8819 137.192 81.7969 136.986C81.7118 136.781 81.6317 136.573 81.5564 136.364C81.4816 136.154 81.4116 135.943 81.347 135.73C81.2824 135.518 81.2231 135.303 81.1687 135.088C81.1148 134.872 81.0662 134.655 81.0224 134.437C80.9792 134.218 80.9408 133.999 80.9083 133.779C80.8757 133.559 80.8485 133.339 80.8267 133.117C80.8048 132.896 80.7883 132.674 80.7776 132.452C80.7664 132.23 80.7611 132.007 80.7611 131.785C80.7611 131.562 80.7664 131.34 80.7776 131.118C80.7883 130.896 80.8048 130.674 80.8267 130.453C80.8485 130.231 80.8757 130.011 80.9083 129.791C80.9408 129.571 80.9792 129.351 81.0224 129.133C81.0662 128.915 81.1148 128.698 81.1687 128.482C81.2231 128.267 81.2824 128.052 81.347 127.84C81.4116 127.627 81.4816 127.415 81.5564 127.206C81.6317 126.997 81.7118 126.789 81.7969 126.584C81.8819 126.378 81.9722 126.175 82.0675 125.974C82.1627 125.773 82.2628 125.575 82.3677 125.378C82.4726 125.182 82.5824 124.989 82.6971 124.798C82.8113 124.607 82.9308 124.419 83.0542 124.235C83.1781 124.05 83.3063 123.868 83.4389 123.69C83.5716 123.511 83.7086 123.335 83.8495 123.164C83.9909 122.992 84.1361 122.824 84.2858 122.659C84.4354 122.494 84.5889 122.333 84.7463 122.176C86.0595 120.868 87.517 119.877 89.196 119.212V70.5255C87.5777 69.8604 86.0595 68.8795 84.7463 67.5609C84.5092 67.3243 84.2814 67.079 84.0628 66.8259C83.8441 66.5723 83.6352 66.3109 83.4356 66.0422C83.2364 65.7731 83.0469 65.4971 82.8681 65.2144C82.6888 64.9316 82.5207 64.6426 82.3628 64.3472C82.2054 64.0518 82.0587 63.7511 81.9237 63.4445C81.7881 63.1385 81.6642 62.828 81.552 62.5122C81.4393 62.1969 81.3387 61.8782 81.2503 61.5551C81.1614 61.2326 81.0846 60.9066 81.02 60.5781C80.9554 60.2497 80.9029 59.9194 80.8626 59.5871C80.8223 59.2547 80.7941 58.9215 80.7786 58.5867C80.763 58.2525 80.7601 57.9178 80.7693 57.5835C80.7781 57.2488 80.7999 56.9145 80.8335 56.5817C80.8675 56.2484 80.9136 55.9171 80.9719 55.5877C81.0302 55.2578 81.1007 54.9309 81.1833 54.6064C81.2658 54.2818 81.3606 53.9612 81.467 53.6434C81.5729 53.3262 81.6909 53.0133 81.8207 52.7043L61.7055 32.6003L8.61908 85.6308C8.48693 85.763 8.35819 85.8985 8.23236 86.037C8.10653 86.1754 7.98459 86.3168 7.86605 86.4611C7.74702 86.6059 7.63236 86.7531 7.52062 86.9032C7.40937 87.0533 7.30151 87.2059 7.19755 87.3613C7.09358 87.5168 6.9935 87.6747 6.89731 87.835C6.80111 87.9953 6.70929 88.1581 6.62087 88.3228C6.53293 88.4875 6.4484 88.6546 6.36872 88.8237C6.28856 88.9922 6.21277 89.1633 6.14136 89.3362C6.06945 89.5087 6.00241 89.6831 5.93925 89.859C5.8761 90.0353 5.8178 90.2126 5.76338 90.3914C5.70897 90.5702 5.65893 90.7505 5.61375 90.9317C5.56808 91.1134 5.52727 91.2956 5.49083 91.4787C5.4544 91.6624 5.42233 91.8465 5.39464 92.0316C5.36743 92.2162 5.3446 92.4018 5.32614 92.5879C5.30768 92.7739 5.29407 92.9605 5.28484 93.147C5.27561 93.3336 5.27124 93.5206 5.27124 93.7077C5.27124 93.8947 5.27561 94.0813 5.28484 94.2679C5.29407 94.4549 5.30768 94.6414 5.32614 94.827C5.3446 95.0131 5.36743 95.1987 5.39464 95.3838C5.42233 95.5689 5.4544 95.753 5.49083 95.9362C5.52727 96.1193 5.56808 96.302 5.61375 96.4832C5.65893 96.6644 5.70897 96.8447 5.76338 97.0235C5.8178 97.2027 5.8761 97.3801 5.93925 97.5559C6.00241 97.7318 6.06945 97.9062 6.14136 98.0792C6.21277 98.2516 6.28856 98.4226 6.36872 98.5917C6.4484 98.7608 6.53293 98.9274 6.62087 99.0921C6.70929 99.2573 6.80111 99.4196 6.89731 99.5799C6.9935 99.7402 7.09358 99.8981 7.19755 100.054C7.30151 100.209 7.40937 100.362 7.52062 100.512C7.63236 100.662 7.74702 100.81 7.86605 100.954C7.98459 101.098 8.10653 101.24 8.23236 101.378C8.35819 101.517 8.48693 101.652 8.61908 101.784L86.043 179.197C86.1751 179.329 86.3102 179.458 86.4487 179.583C86.5871 179.709 86.7285 179.831 86.8733 179.949C87.0176 180.068 87.1648 180.183 87.3149 180.294C87.465 180.406 87.6176 180.513 87.773 180.617C87.9285 180.721 88.0864 180.821 88.2462 180.917C88.4065 181.013 88.5693 181.105 88.734 181.194C88.8987 181.281 89.0658 181.366 89.2349 181.445C89.4035 181.525 89.5745 181.601 89.7469 181.673C89.9194 181.744 90.0938 181.812 90.2697 181.874C90.446 181.937 90.6234 181.996 90.8022 182.05C90.9809 182.104 91.1607 182.155 91.3424 182.2C91.5236 182.245 91.7058 182.286 91.889 182.323C92.0721 182.359 92.2562 182.391 92.4413 182.418C92.626 182.446 92.8115 182.469 92.9976 182.487C93.1832 182.505 93.3698 182.519 93.5563 182.528C93.7429 182.537 93.9299 182.542 94.1165 182.542C94.3035 182.542 94.4906 182.537 94.6771 182.528C94.8637 182.519 95.0497 182.505 95.2358 182.487C95.4219 182.469 95.6075 182.446 95.7921 182.418C95.9772 182.391 96.1613 182.359 96.3445 182.323C96.5276 182.286 96.7098 182.245 96.891 182.2C97.0727 182.155 97.2525 182.104 97.4313 182.05C97.6101 181.996 97.7874 181.937 97.9637 181.874C98.1396 181.812 98.3135 181.744 98.4865 181.673C98.659 181.601 98.83 181.525 98.9986 181.445C99.1676 181.366 99.3347 181.281 99.4994 181.194C99.6641 181.105 99.8269 181.013 99.9867 180.917C100.147 180.821 100.305 180.721 100.46 180.617C100.616 180.513 100.768 180.406 100.919 180.294C101.069 180.183 101.216 180.068 101.36 179.949C101.505 179.831 101.646 179.709 101.785 179.583C101.923 179.458 102.058 179.329 102.19 179.197L179.254 102.255C179.386 102.123 179.515 101.988 179.641 101.849C179.766 101.711 179.889 101.569 180.007 101.425C180.126 101.28 180.241 101.133 180.352 100.983C180.464 100.833 180.571 100.68 180.675 100.525C180.779 100.369 180.879 100.211 180.976 100.051C181.072 99.8908 181.164 99.7281 181.252 99.5634C181.34 99.3987 181.425 99.2316 181.505 99.0625C181.584 98.8934 181.66 98.7229 181.732 98.5499C181.803 98.3775 181.871 98.2031 181.934 98.0272C181.997 97.8508 182.056 97.6735 182.11 97.4947C182.164 97.3159 182.214 97.1357 182.26 96.9545C182.305 96.7728 182.346 96.5906 182.383 96.4074C182.419 96.2238 182.451 96.0397 182.478 95.8546C182.506 95.6699 182.529 95.4844 182.547 95.2983C182.565 95.1122 182.579 94.9257 182.589 94.7391C182.598 94.5526 182.602 94.3655 182.602 94.1785C182.602 93.9914 182.598 93.8049 182.589 93.6178C182.579 93.4313 182.565 93.2447 182.547 93.0586C182.529 92.8726 182.506 92.6874 182.478 92.5023C182.451 92.3173 182.419 92.1331 182.383 91.95C182.346 91.7663 182.305 91.5841 182.26 91.4029C182.214 91.2217 182.164 91.0415 182.11 90.8627C182.056 90.6834 181.997 90.5061 181.934 90.3302C181.871 90.1543 181.803 89.9799 181.732 89.807C181.66 89.6345 181.584 89.4635 181.505 89.2944C181.425 89.1254 181.34 88.9587 181.252 88.7935C181.164 88.6289 181.072 88.4661 180.976 88.3058C180.879 88.1455 180.779 87.988 180.675 87.8326C180.571 87.6771 180.464 87.5241 180.352 87.374C180.241 87.2238 180.126 87.0766 180.007 86.9323C179.889 86.7881 179.766 86.6462 179.641 86.5077C179.515 86.3693 179.386 86.2342 179.254 86.1021" fill="#F03C2E"/>
</g>
</svg>
