<svg width="188" height="188" viewBox="0 0 188 188" fill="none" xmlns="http://www.w3.org/2000/svg">
<mask id="mask0_201_605" style="mask-type:luminance" maskUnits="userSpaceOnUse" x="15" y="4" width="158" height="180">
<path d="M15.3176 4.8916H172.399V183.241H15.3176V4.8916Z" fill="white"/>
</mask>
<g mask="url(#mask0_201_605)">
<path d="M29.5769 165.355L15.2727 4.97363H172.443L158.128 165.332L93.7577 183.163L29.5769 165.355Z" fill="#E44D26"/>
</g>
<path d="M145.868 155.12L158.106 18.0889H93.8586V169.537L145.868 155.12Z" fill="#F16529"/>
<path d="M93.7914 37.7578H44.5168L49.8255 97.2411H93.8585V77.5728H67.823L66.0235 57.4314H93.8585V37.7578H93.7914ZM93.8585 128.592L93.7749 128.614L71.8612 122.701L70.4688 107.014H50.7053L53.4629 137.898L93.7691 149.035L93.8585 149.006V128.592Z" fill="#EBEBEB"/>
<path d="M93.7914 97.2411H118.022L115.794 122.745L93.8473 128.664V149.129L134.187 137.953L139.59 77.5617H93.8585L93.7914 97.2411ZM142.609 43.0368L143.077 37.7578H93.7803V57.4256H141.306L141.696 53.0045L142.609 43.0368Z" fill="white"/>
</svg>
