<svg width="105" height="64" viewBox="0 0 105 64" fill="none" xmlns="http://www.w3.org/2000/svg">
<g clip-path="url(#clip0_508_1245)">
<mask id="mask0_508_1245" style="mask-type:luminance" maskUnits="userSpaceOnUse" x="0" y="0" width="105" height="63">
<path d="M0.273438 0H105.001V62.8364H0.273438V0Z" fill="white"/>
</mask>
<g mask="url(#mask0_508_1245)">
<path fill-rule="evenodd" clip-rule="evenodd" d="M52.6371 0C38.6734 0 29.9462 6.98182 26.4553 20.9455C31.6916 13.9636 37.8007 11.3455 44.7825 13.0909C48.766 14.0858 51.6131 16.9775 54.7646 20.1755C59.8982 25.3867 65.8405 31.4182 78.8189 31.4182C92.7825 31.4182 101.51 24.4364 105.001 10.4727C99.7643 17.4545 93.6553 20.0727 86.6734 18.3273C82.6899 17.3324 79.8429 14.4407 76.6914 11.2427C71.5578 6.03151 65.6155 0 52.6371 0ZM26.4553 31.4182C12.4916 31.4182 3.76435 38.4 0.273438 52.3636C5.5098 45.3818 11.6189 42.7636 18.6007 44.5091C22.5842 45.5059 25.4313 48.3956 28.5828 51.5937C33.7163 56.8048 39.6586 62.8364 52.6371 62.8364C66.6007 62.8364 75.328 55.8545 78.8189 41.8909C73.5825 48.8727 67.4734 51.4909 60.4916 49.7455C56.5081 48.7505 53.6611 45.8589 50.5096 42.6608C45.376 37.4497 39.4337 31.4182 26.4553 31.4182Z" fill="#38BDF8"/>
</g>
</g>
<defs>
<clipPath id="clip0_508_1245">
<rect width="104.727" height="64" fill="white" transform="translate(0.273438)"/>
</clipPath>
</defs>
</svg>
