<svg width="44" height="64" viewBox="0 0 44 64" fill="none" xmlns="http://www.w3.org/2000/svg">
<g clip-path="url(#clip0_508_1254)">
<path d="M22 32.0002C22 29.1712 23.1238 26.4581 25.1242 24.4577C27.1246 22.4573 29.8377 21.3335 32.6667 21.3335C35.4956 21.3335 38.2088 22.4573 40.2091 24.4577C42.2095 26.4581 43.3333 29.1712 43.3333 32.0002C43.3333 34.8291 42.2095 37.5422 40.2091 39.5426C38.2088 41.543 35.4956 42.6668 32.6667 42.6668C29.8377 42.6668 27.1246 41.543 25.1242 39.5426C23.1238 37.5422 22 34.8291 22 32.0002Z" fill="#1ABCFE"/>
<path d="M0.666016 53.3332C0.666016 50.5042 1.78982 47.7911 3.79021 45.7907C5.7906 43.7903 8.50371 42.6665 11.3327 42.6665H21.9993V53.3332C21.9993 56.1621 20.8755 58.8753 18.8752 60.8756C16.8748 62.876 14.1617 63.9998 11.3327 63.9998C8.50371 63.9998 5.7906 62.876 3.79021 60.8756C1.78982 58.8753 0.666016 56.1621 0.666016 53.3332Z" fill="#0ACF83"/>
<path d="M22 0V21.3333H32.6667C35.4956 21.3333 38.2088 20.2095 40.2091 18.2091C42.2095 16.2088 43.3333 13.4956 43.3333 10.6667C43.3333 7.83769 42.2095 5.12458 40.2091 3.12419C38.2088 1.12381 35.4956 0 32.6667 0L22 0Z" fill="#FF7262"/>
<path d="M0.666016 10.6667C0.666016 13.4956 1.78982 16.2088 3.79021 18.2091C5.7906 20.2095 8.50371 21.3333 11.3327 21.3333H21.9993V0H11.3327C8.50371 0 5.7906 1.12381 3.79021 3.12419C1.78982 5.12458 0.666016 7.83769 0.666016 10.6667Z" fill="#F24E1E"/>
<path d="M0.666016 32.0002C0.666016 34.8291 1.78982 37.5422 3.79021 39.5426C5.7906 41.543 8.50371 42.6668 11.3327 42.6668H21.9993V21.3335H11.3327C8.50371 21.3335 5.7906 22.4573 3.79021 24.4577C1.78982 26.4581 0.666016 29.1712 0.666016 32.0002Z" fill="#A259FF"/>
</g>
<defs>
<clipPath id="clip0_508_1254">
<rect width="42.6667" height="64" fill="white" transform="translate(0.666016)"/>
</clipPath>
</defs>
</svg>
