<svg width="64" height="64" viewBox="0 0 64 64" fill="none" xmlns="http://www.w3.org/2000/svg">
<path d="M0 64V0H64V64H0Z" fill="#FFD600"/>
<path d="M41.8451 47.9057C43.0754 49.9039 44.4122 51.8186 47.2442 51.8186C49.6229 51.8186 50.8709 50.6363 50.8709 49.0008C50.8709 47.0434 49.5802 46.3483 46.9633 45.2088L45.5287 44.5972C41.3882 42.8408 38.6345 40.6399 38.6345 35.991C38.6345 31.7066 41.9145 28.4461 47.0398 28.4461C50.6896 28.4461 53.3118 29.7101 55.2033 33.0203L50.734 35.8772C49.7509 34.1208 48.6878 33.4292 47.0398 33.4292C45.358 33.4292 44.2931 34.4906 44.2931 35.8772C44.2931 37.591 45.3598 38.2843 47.822 39.3457L49.2567 39.9572C54.1367 42.0354 56.8887 44.1581 56.8887 48.9297C56.8887 54.071 52.8282 56.8888 47.3776 56.8888C42.046 56.8888 39.0185 54.2132 37.3331 50.9012L41.8451 47.9057ZM21.2478 48.0514C22.1474 49.6621 23.5145 50.9012 25.4807 50.9012C27.3616 50.9012 28.4442 50.1581 28.4442 47.2692V28.4443H34.3696V48.1795C34.3696 54.1652 30.8976 56.8888 25.8274 56.8888C21.246 56.8888 17.9394 53.7848 16.5918 50.9012L21.2478 48.0514Z" fill="#000001"/>
</svg>
