<svg width="70" height="64" viewBox="0 0 70 64" fill="none" xmlns="http://www.w3.org/2000/svg">
<g clip-path="url(#clip0_508_1196)">
<path d="M35.0908 38.7725C38.7631 38.7725 41.7401 35.7404 41.7401 32C41.7401 28.2597 38.7631 25.2275 35.0908 25.2275C31.4184 25.2275 28.4414 28.2597 28.4414 32C28.4414 35.7404 31.4184 38.7725 35.0908 38.7725Z" fill="#087EA4"/>
<path d="M35.0905 47.2379C53.4522 47.2379 68.3373 40.4156 68.3373 31.9998C68.3373 23.584 53.4522 16.7617 35.0905 16.7617C16.7288 16.7617 1.84375 23.584 1.84375 31.9998C1.84375 40.4156 16.7288 47.2379 35.0905 47.2379Z" stroke="#087EA4" stroke-width="3"/>
<path d="M22.1339 39.619C31.3148 55.8152 44.5582 65.5336 51.7139 61.3257C58.8697 57.1178 57.228 40.5771 48.0472 24.3809C38.8664 8.18475 25.6229 -1.53366 18.4672 2.67422C11.3114 6.88211 12.9531 23.4228 22.1339 39.619Z" stroke="#087EA4" stroke-width="3"/>
<path d="M22.1333 24.3811C12.9524 40.5772 11.3108 57.118 18.4665 61.3259C25.6223 65.5337 38.8657 55.8153 48.0465 39.6192C57.2274 23.423 58.869 6.88229 51.7133 2.67441C44.5575 -1.53348 31.3141 8.18494 22.1333 24.3811Z" stroke="#087EA4" stroke-width="3"/>
</g>
<defs>
<clipPath id="clip0_508_1196">
<rect width="69.8182" height="64" fill="white" transform="translate(0.181641)"/>
</clipPath>
</defs>
</svg>
