<svg width="64" height="64" viewBox="0 0 64 64" fill="none" xmlns="http://www.w3.org/2000/svg">
<path d="M56.266 29.4665L34.5327 7.73317C33.866 7.0665 32.9327 6.6665 31.9993 6.6665C31.066 6.6665 30.1327 7.0665 29.466 7.73317L24.7994 12.3998L30.266 17.8665C30.7994 17.5998 31.3327 17.4665 31.9993 17.4665C34.266 17.4665 35.9993 19.1998 35.9993 21.4665C35.9993 22.1332 35.866 22.6665 35.5994 23.1998L40.9327 28.5332C41.466 28.2665 41.9994 28.1332 42.666 28.1332C44.9327 28.1332 46.666 29.8665 46.666 32.1332C46.666 34.3998 44.9327 36.1332 42.666 36.1332C40.3993 36.1332 38.666 34.3998 38.666 32.1332C38.666 31.4665 38.7993 30.9332 39.066 30.3998L33.7327 25.0665C33.5993 25.0665 33.466 25.1998 33.3327 25.1998V39.0665C34.9327 39.5998 35.9993 41.0665 35.9993 42.7998C35.9993 45.0665 34.266 46.7998 31.9993 46.7998C29.7327 46.7998 27.9993 45.0665 27.9993 42.7998C27.9993 41.0665 29.066 39.5998 30.666 39.0665V25.0665C29.066 24.5332 27.9993 23.0665 27.9993 21.3332C27.9993 20.6665 28.1327 20.1332 28.3993 19.5998L22.9327 14.1332L7.73268 29.4665C7.06602 30.1332 6.66602 31.0665 6.66602 31.9998C6.66602 32.9332 7.06602 33.8665 7.73268 34.5332L29.466 56.2665C30.1327 56.9332 31.066 57.3332 31.9993 57.3332C32.9327 57.3332 33.866 56.9332 34.5327 56.2665L56.266 34.5332C56.9327 33.8665 57.3327 32.9332 57.3327 31.9998C57.3327 31.0665 56.9327 30.1332 56.266 29.4665Z" fill="#F4511E"/>
</svg>
